<?xml version="1.0" encoding="UTF-8"?>
<!-- Generator: Adobe Illustrator 21.0.0, SVG Export Plug-In . SVG Version: 6.00 Build 0)  -->
<svg version="1.1" id="Слой_1" xmlns="http://www.w3.org/2000/svg" xmlns:xlink="http://www.w3.org/1999/xlink" x="0px" y="0px" viewBox="0 0 52 42" style="enable-background:new 0 0 52 42;" xml:space="preserve">
<style type="text/css">
	.st0{fill:#FFFFFF;}
	.st1{fill:#E08844;}
	.st2{fill:#5E7C4F;}
</style>
<path class="st0" d="M7,3.4v20.9h23.1V3.4H7z M17.6,22.4H9V5.2h8.7V22.4z M28.2,22.4h-8.7V5.2h8.7V22.4z"/>
<rect x="33.5" y="3.4" class="st0" width="11.7" height="32.5"/>
<rect x="0.5" y="39.2" class="st0" width="51" height="2.3"/>
<rect x="2.4" y="27" class="st1" width="47.2" height="12.2"/>
<rect x="3.4" y="31.9" transform="matrix(-1.836970e-16 1 -1 -1.836970e-16 42.624 23.5108)" class="st0" width="12.2" height="2.3"/>
<rect x="36.1" y="31.9" transform="matrix(-1.836970e-16 1 -1 -1.836970e-16 75.3295 -9.1946)" class="st0" width="12.2" height="2.3"/>
<rect x="19.4" y="31.9" transform="matrix(-1.836970e-16 1 -1 -1.836970e-16 58.6061 7.5287)" class="st0" width="12.2" height="2.3"/>
<g>
	<path d="M4.3,23.8c-0.3,0-0.5,0.2-0.5,0.5c0,0.3,0.2,0.5,0.5,0.5H7h0h23.1c0.3,0,0.5-0.2,0.5-0.5V3.4c0-0.3-0.2-0.5-0.5-0.5H7h0   H4.3c-0.3,0-0.5,0.2-0.5,0.5s0.2,0.5,0.5,0.5h2.2V8H4.3C4.1,8,3.8,8.2,3.8,8.5C3.8,8.8,4.1,9,4.3,9h2.2v4.2H4.3   c-0.3,0-0.5,0.2-0.5,0.5c0,0.3,0.2,0.5,0.5,0.5h2.2v4.2H4.3c-0.3,0-0.5,0.2-0.5,0.5c0,0.3,0.2,0.5,0.5,0.5h2.2v4.2H4.3z M29.6,23.8   H7.5v-4.7c0,0,0,0,0-0.1c0,0,0,0,0-0.1v-5.1c0,0,0,0,0-0.1c0,0,0,0,0-0.1V8.6c0,0,0,0,0-0.1c0,0,0,0,0-0.1V3.9h22.1V23.8z"/>
	<path d="M2.4,1h47.2c0.3,0,0.5-0.2,0.5-0.5S49.9,0,49.6,0H2.4C2.1,0,1.9,0.2,1.9,0.5S2.1,1,2.4,1z"/>
	<path d="M19.5,22.9h8.7c0.3,0,0.5-0.2,0.5-0.5V5.2c0-0.3-0.2-0.5-0.5-0.5h-8.7C19.2,4.7,19,5,19,5.2v17.2   C19,22.7,19.2,22.9,19.5,22.9z M20,5.7h7.7v16.2H20V5.7z"/>
	<path d="M9,22.9h8.7c0.3,0,0.5-0.2,0.5-0.5V5.2c0-0.3-0.2-0.5-0.5-0.5H9C8.7,4.7,8.5,5,8.5,5.2v17.2C8.5,22.7,8.7,22.9,9,22.9z    M9.4,5.7h7.7v16.2H9.4V5.7z"/>
	<path d="M51.5,38.7h-1.4V27.3h0.5c0.3,0,0.5-0.2,0.5-0.5c0-0.3-0.2-0.5-0.5-0.5h-4.9v-1.6h2.2c0.3,0,0.5-0.2,0.5-0.5   c0-0.3-0.2-0.5-0.5-0.5h-2.2v-4.2h2.2c0.3,0,0.5-0.2,0.5-0.5c0-0.3-0.2-0.5-0.5-0.5h-2.2v-4.2h2.2c0.3,0,0.5-0.2,0.5-0.5   c0-0.3-0.2-0.5-0.5-0.5h-2.2V9h2.2c0.3,0,0.5-0.2,0.5-0.5c0-0.3-0.2-0.5-0.5-0.5h-2.2V3.9h2.2c0.3,0,0.5-0.2,0.5-0.5   s-0.2-0.5-0.5-0.5h-2.7H33.5c-0.3,0-0.5,0.2-0.5,0.5v23H1.4c-0.3,0-0.5,0.2-0.5,0.5c0,0.3,0.2,0.5,0.5,0.5h0.5v11.4H0.5   c-0.3,0-0.5,0.2-0.5,0.5v2.3C0,41.8,0.2,42,0.5,42h51c0.3,0,0.5-0.2,0.5-0.5v-2.3C52,38.9,51.8,38.7,51.5,38.7z M27.2,38.7v-3.1   h13.5v3.1H27.2z M11.2,38.7v-3.1h12.7v3.1H11.2z M7.9,30.4H2.9v-3h5.1V30.4z M2.9,31.4h5.1v3.1H2.9V31.4z M8.9,27.5h1.4v11.2H8.9   V27.5z M27.2,31.4h13.5v3.1H27.2V31.4z M40.6,30.4H27.2v-3h13.5V30.4z M42.8,26.3H36V5.6h6.8V26.3z M11.2,31.4h12.7v3.1H11.2V31.4z    M23.9,30.4H11.2v-3h12.7V30.4z M24.9,27.5h1.4v11.2h-1.4V27.5z M41.6,27.5h1.4v11.2h-1.4V27.5z M43.9,31.4h5.3v3.1h-5.3V31.4z    M49.1,30.4h-5.3v-3h5.3V30.4z M43.9,35.6h5.3v3.1h-5.3V35.6z M33.9,3.9h10.8v22.5h-1V5.1c0-0.3-0.2-0.5-0.5-0.5h-7.7   c-0.3,0-0.5,0.2-0.5,0.5v21.2h-1.1V3.9z M2.9,35.6h5.1v3.1H2.9V35.6z M51,41H1v-1.3h1.4h6h2.3h13.7h2.3h14.4h2.3h6.2H51V41z"/>
	<ellipse cx="37.4" cy="20.5" rx="0.4" ry="0.4"/>
</g>
<path class="st2" d="M12.8,5.7c-0.1,6.4-1.7,11-3.4,11.8v1.1c2.4-0.6,4.2-5.9,4.3-12.9H12.8z"/>
<path class="st2" d="M27.7,17.3c-1.6-0.8-3.3-5.3-3.4-11.6h-1c0.1,6.8,1.9,12,4.3,12.6V17.3z"/>
</svg>