<?xml version="1.0" encoding="UTF-8"?>
<!-- Generator: Adobe Illustrator 21.0.0, SVG Export Plug-In . SVG Version: 6.00 Build 0)  -->
<svg version="1.1" id="Слой_1" xmlns="http://www.w3.org/2000/svg" xmlns:xlink="http://www.w3.org/1999/xlink" x="0px" y="0px" viewBox="0 0 52 42" style="enable-background:new 0 0 52 42;" xml:space="preserve">
<style type="text/css">
	.st0{fill:#E08844;}
	.st1{fill:#FFFFFF;}
	.st2{fill:#5E7C4F;}
</style>
<g>
	<path class="st0" d="M34.5,14.6v2c-1.2-1.9-5.2-3.8-15.3-3.8c-10,0-14,1.9-15.3,3.8v-2H1.6v18.5H4v-6h30.5v6h2.4V14.6H34.5z    M4,19.1v-1h0.9C4.5,18.4,4.2,18.8,4,19.1z M33.7,18.1h0.9v1C34.3,18.8,34,18.4,33.7,18.1z"/>
	<polygon class="st0" points="1.6,41.5 4.3,41.5 4.3,40.2 34.2,40.2 34.2,41.5 36.9,41.5 36.9,36.6 1.6,36.6  "/>
</g>
<g>
	<path class="st1" d="M32,21.7c0-0.7-0.6-1.3-1.3-1.3l-0.5,0.1c-2.6,0.7-5.4,0.7-8,0l-0.5-0.1c-0.7,0-1.3,0.6-1.3,1.3v5.2H32V21.7z"/>
	<path class="st1" d="M18.2,21.7c0-0.7-0.6-1.3-1.3-1.3l-0.5,0.1c-2.6,0.7-5.4,0.7-8,0l-0.5-0.1c-0.7,0-1.3,0.6-1.3,1.3v5.2h11.6   V21.7z"/>
	<path class="st1" d="M33.8,27.1h-29c-1.7,0-3.1,1.4-3.1,3.2v4v2.4v3.5v1.3h2.6v-1.3h30l0,1.3h2.6v-1.3v-3.5v-2.4v-4   C36.9,28.5,35.5,27.1,33.8,27.1z"/>
</g>
<path class="st2" d="M49.8,0.4c0-0.2-0.2-0.4-0.5-0.4h-8c-0.2,0-0.5,0.2-0.5,0.4l-1.5,9.7c0,0.1,0,0.3,0.1,0.4  c0.1,0.1,0.2,0.2,0.4,0.2h1.6v4.3c0,0.3,0.2,0.5,0.5,0.5c0.3,0,0.5-0.2,0.5-0.5v-4.3h2.3v13.8c-1.9,0.2-3.3,1.2-3.3,2.6  c0,0.3,0.2,0.5,0.5,0.5l0.8,0l5.8,0c0.3,0,0.5-0.2,0.5-0.5c0-1.3-1.5-2.4-3.3-2.6V10.7h5c0.1,0,0.3-0.1,0.4-0.2  c0.1-0.1,0.1-0.3,0.1-0.4L49.8,0.4z M47.9,26.6l-5.2,0l-0.2,0c0.4-0.6,1.5-1.1,2.7-1.1c0,0,0,0,0,0c0,0,0,0,0,0  C46.5,25.5,47.6,26,47.9,26.6z M41.7,1h7.1l1,6.8h-9.2L41.7,1z M40.4,9.7l0.1-0.9H50l0.1,0.9H40.4z"/>
<g>
	<ellipse cx="45.3" cy="30.6" rx="0.7" ry="0.8"/>
	<path d="M36.9,14.1h-2.4c-0.3,0-0.5,0.2-0.5,0.5v0.8c-1.9-1.5-5.9-3-14.8-3c-8.8,0-12.9,1.5-14.8,3v-0.8c0-0.3-0.2-0.5-0.5-0.5H1.6   c-0.3,0-0.5,0.2-0.5,0.5v15.7v0.5v3.5v2.4v4.9c0,0.3,0.2,0.5,0.5,0.5h2.6c0.3,0,0.5-0.2,0.5-0.5v-0.8h28.9v0.8c0,0,0,0.1,0,0.1   c0,0,0,0.1,0,0.1c0,0,0,0.1,0.1,0.1c0,0,0,0,0,0c0,0,0,0,0,0c0.1,0.1,0.2,0.1,0.4,0.1h2.6c0.3,0,0.5-0.2,0.5-0.5v-4.9v-2.4V32v-1.8   V14.6C37.4,14.3,37.2,14.1,36.9,14.1z M20.9,26.4v-4.7c0-0.4,0.3-0.8,0.7-0.8L22,21c2.7,0.7,5.6,0.7,8.3,0l0.5-0.1   c0.4,0,0.7,0.4,0.7,0.8v4.7H20.9z M30.7,19.9c0,0-0.1,0-0.1,0L30,20c-2.5,0.7-5.2,0.7-7.8,0l-0.5-0.1c0,0-0.1,0-0.1,0   c-1,0-1.8,0.8-1.8,1.8v4.9h-1.2v-4.9c0-1-0.8-1.8-1.8-1.8c0,0-0.1,0-0.1,0L16.2,20c-2.5,0.7-5.2,0.7-7.8,0l-0.5-0.1   c0,0-0.1,0-0.1,0c-1,0-1.8,0.8-1.8,1.8v4.9H4.7H4.5v-7.3c1.3-2,5.7-3.7,14.8-3.7c9.1,0,13.4,1.7,14.8,3.7v7.3h-0.2h-1.3v-4.9   C32.5,20.7,31.7,19.9,30.7,19.9z M7,26.4v-4.7c0-0.4,0.3-0.8,0.7-0.8L8.2,21c2.7,0.7,5.6,0.7,8.3,0l0.5-0.1c0.4,0,0.7,0.4,0.7,0.8   v4.7H7z M19.3,13.3c9.1,0,13.4,1.6,14.8,3.5v1c-1.8-1.7-5.9-3.2-14.8-3.2c-8.8,0-12.9,1.6-14.8,3.2v-1C5.8,15,10.2,13.3,19.3,13.3z    M2.1,15.1h1.4v11.7c-0.5,0.2-1,0.5-1.4,0.9V15.1z M36.4,36.1H2.1v-1.4h34.2V36.1z M36.4,41h-1.6l0-0.8c0-0.1,0-0.3-0.1-0.4   c-0.1-0.1-0.2-0.2-0.4-0.2h0H4.3c-0.3,0-0.5,0.2-0.5,0.5V41H2.1v-3.9h34.2V41z M36.4,33.8H2.1v-3v-0.5c0-1.5,1.2-2.7,2.6-2.7h29   c1.4,0,2.6,1.2,2.6,2.7v1.7V33.8z M35,26.8V15.1h1.4v12.6C36,27.3,35.5,27,35,26.8z"/>
	<path d="M50.3,26.6h-10c-0.3,0-0.5,0.2-0.5,0.5v14.4c0,0.3,0.2,0.5,0.5,0.5h10c0.3,0,0.5-0.2,0.5-0.5V27.1   C50.8,26.8,50.6,26.6,50.3,26.6z M49.8,27.6v6.2h-9v-6.2H49.8z M40.8,41v-6.2h9V41H40.8z"/>
	<ellipse cx="45.3" cy="38.1" rx="0.7" ry="0.8"/>
</g>
</svg>