<?xml version="1.0" encoding="UTF-8"?>
<!-- Generator: Adobe Illustrator 21.0.0, SVG Export Plug-In . SVG Version: 6.00 Build 0)  -->
<svg version="1.1" id="Layer_1" xmlns="http://www.w3.org/2000/svg" xmlns:xlink="http://www.w3.org/1999/xlink" x="0px" y="0px" viewBox="0 0 190.9 190.9" style="enable-background:new 0 0 190.9 190.9;" xml:space="preserve">
<style type="text/css">
	.st0{fill:#C7811D;}
	.st1{fill:#587640;}
</style>
<title>Escort_hover</title>
<path class="st0" d="M43.8,78.9h105v14l-8.5,2.5l-2.5,5.3l-1.8,56.2l-6,7.3H63.5c0,0-8-2.8-8.3-3.5s-3.8-12-3.8-12l4.8-48l-4.5-5.3  l-9.8-3.9L43.8,78.9z"/>
<path class="st1" d="M15.6,118.5h26.1c1.4,0.1,2.7-1,2.8-2.4c0.1-1.4-1-2.7-2.4-2.8c-0.1,0-0.2,0-0.3,0H15.6  c-5.2,0-10.4-1.5-10.4-13V0H0v101C0.2,115.5,8.6,118.5,15.6,118.5z"/>
<path d="M104.9,180.8v-13.6h19.8c2.8,0,7.5-0.1,11-3.6c2.7-2.6,4-6.7,4-11.9v-47.1c0-3.5,0-5.6,1.1-6.6s4-1.7,8.4-1.7h2.6V76h-29.3  V50.4c-0.1-1.4-1.3-2.5-2.8-2.4c-1.3,0.1-2.4,1.1-2.4,2.4V76H73.6V50.4c-0.1-1.4-1.3-2.5-2.8-2.4c-1.3,0.1-2.4,1.1-2.4,2.4V76H39.1  v20.1h2.6c4.4,0,7.2,0.6,8.3,1.7s1.1,3.1,1.1,6.6v47.1c0,5.3,1.3,9.3,4,11.9c3.5,3.5,8.3,3.6,11,3.6H86v13.6h6.8v10H98v-10H104.9z   M66.5,162c-2.2,0-5.5,0-7.7-2.1c-1.6-1.6-2.5-4.4-2.5-8.3v-47.1c0-3.9,0-7.7-2.6-10.3c-1.9-1.9-4.9-2.9-9.4-3.2v-9.8h102.3V91  c-4.6,0.3-7.5,1.3-9.4,3.2c-2.6,2.7-2.6,6.4-2.6,10.3v47.1c0,3.9-0.8,6.6-2.5,8.3c-2.1,2.1-5.4,2.1-7.7,2.1L66.5,162L66.5,162z   M92.8,175.6h-1.6v-8.4h8.5v8.4L92.8,175.6L92.8,175.6z"/>
<path d="M124.5,91.5H81.4c-1.4-0.1-2.7,1-2.8,2.4c-0.1,1.4,1,2.7,2.4,2.8c0.1,0,0.2,0,0.3,0h43.1c1.4,0.1,2.7-1,2.8-2.4  c0.1-1.4-1-2.7-2.4-2.8C124.7,91.5,124.6,91.5,124.5,91.5L124.5,91.5z"/>
<path d="M67.7,91.5h-1.1c-1.4-0.1-2.7,1-2.8,2.4c-0.1,1.4,1,2.7,2.4,2.8c0.1,0,0.2,0,0.3,0h1.1c1.4,0.1,2.7-1,2.8-2.4  c0.1-1.4-1-2.7-2.4-2.8C67.9,91.5,67.8,91.5,67.7,91.5z"/>
<path d="M81.9,122.7h-1.1c-1.4-0.1-2.7,1-2.8,2.4c-0.1,1.4,1,2.7,2.4,2.8c0.1,0,0.2,0,0.3,0h1.1c1.4,0.1,2.7-1,2.8-2.4  c0.1-1.4-1-2.7-2.4-2.8C82.1,122.7,82,122.7,81.9,122.7z"/>
<path d="M96.4,122.7h-1.1c-1.4-0.1-2.7,1-2.8,2.4c-0.1,1.4,1,2.7,2.4,2.8c0.1,0,0.2,0,0.3,0h1.1c1.4,0.1,2.7-1,2.8-2.4  c0.1-1.4-1-2.7-2.4-2.8C96.6,122.7,96.5,122.7,96.4,122.7z"/>
<path d="M110.9,122.7h-1.1c-1.4-0.1-2.7,1-2.8,2.4c-0.1,1.4,1,2.7,2.4,2.8c0.1,0,0.2,0,0.3,0h1.1c1.4,0.1,2.7-1,2.8-2.4  c0.1-1.4-1-2.7-2.4-2.8C111.1,122.7,111,122.7,110.9,122.7z"/>
<path class="st1" d="M18.1,98.1H17c-1.4-0.1-2.7,1-2.8,2.4c-0.1,1.4,1,2.7,2.4,2.8c0.1,0,0.2,0,0.3,0h1.1c1.4,0.1,2.7-1,2.8-2.4  c0.1-1.4-1-2.7-2.4-2.8C18.4,98.1,18.2,98.1,18.1,98.1z"/>
<path class="st1" d="M96.3,28h-1.1c-1.4-0.1-2.7,1-2.8,2.4c-0.1,1.4,1,2.7,2.4,2.8c0.1,0,0.2,0,0.3,0h1.1c1.4,0.1,2.7-1,2.8-2.4  c0.1-1.4-1-2.7-2.4-2.8C96.5,28,96.4,28,96.3,28z"/>
<path class="st1" d="M142.4,29.3c0,12.3-4.9,24.1-13.6,32.8c-1,1-1,2.6,0,3.7c0,0,0,0,0,0c1,1,2.7,1,3.7,0  c17.7-17.6,20.2-45.3,6-65.8H132C138.7,8.3,142.4,18.6,142.4,29.3z"/>
<path class="st1" d="M59,65.9c1,1,2.7,0.9,3.7-0.1c0.9-1,0.9-2.6,0-3.6C45.8,45.4,44.4,18.4,59.5,0H53C38.8,20.5,41.3,48.3,59,65.9z  "/>
<path class="st1" d="M71,20.8c-5.6,0-10.2,4.6-10.1,10.2c0,5.6,4.6,10.2,10.2,10.1c5.6,0,10.1-4.5,10.1-10.1  C81.2,25.4,76.6,20.8,71,20.8z M71,35.9c-2.8,0-5-2.2-5-5s2.2-5,5-5s5,2.2,5,5S73.8,35.9,71,35.9z"/>
<path class="st1" d="M119.8,20.8c-5.6,0-10.2,4.6-10.1,10.2s4.6,10.2,10.2,10.1c5.6,0,10.1-4.5,10.1-10.1  C130.1,25.4,125.5,20.8,119.8,20.8z M119.8,35.9c-2.8,0-5-2.2-5-5s2.2-5,5-5s5,2.2,5,5S122.6,35.9,119.8,35.9z"/>
<path class="st1" d="M175.2,113.4h-26.1c-1.4-0.1-2.7,1-2.8,2.4c-0.1,1.4,1,2.7,2.4,2.8c0.1,0,0.2,0,0.3,0h26.1  c7.1,0,15.6-3.2,15.6-18.2V0h-5.2v100.4C185.6,111.8,180.4,113.4,175.2,113.4z"/>
<path class="st1" d="M173.8,98.1h-1.1c-1.4-0.1-2.7,1-2.8,2.4c-0.1,1.4,1,2.7,2.4,2.8c0.1,0,0.2,0,0.3,0h1.1c1.4,0.1,2.7-1,2.8-2.4  c0.1-1.4-1-2.7-2.4-2.8C174.1,98.1,173.9,98.1,173.8,98.1z"/>
</svg>