<svg id="Layer_1" data-name="Layer 1" xmlns="http://www.w3.org/2000/svg" viewBox="0 0 246.18 246.18"><defs><style>.cls-1{fill:#587640;}.cls-2{fill:#fff;}.cls-3{fill:#231f20;}.cls-4{fill:none;}.cls-5{fill:#c7811d;}</style></defs><title>Fundament</title><polygon class="cls-1" points="123.19 99.9 29.86 154.04 29.86 189.6 44.99 198.38 60.31 189.49 44.99 180.6 107.86 217.08 107.86 234.86 123.19 243.75 138.51 234.86 138.51 217.08 187.28 188.78 202.6 197.67 216.52 189.6 216.52 154.04 123.19 99.9"/><polygon class="cls-2" points="150.24 131.5 123.19 115.81 57.28 154.04 84.33 169.74 150.24 131.5"/><polygon class="cls-2" points="164.08 168.54 189.09 154.04 160.75 137.6 135.73 152.09 164.08 168.54"/><polygon class="cls-2" points="123.19 159.29 94.84 175.83 123.19 192.28 151.63 175.79 123.19 159.29"/><path class="cls-3" d="M235.47,36.35H193a7.41,7.41,0,0,1-7.39-7.41V27.8a12.39,12.39,0,0,1,12.35-12.39,12.24,12.24,0,0,1,3,.38,16.64,16.64,0,0,1,32-5.41,14.26,14.26,0,0,1,13.2,14.23C246.18,32.62,239.79,36.35,235.47,36.35ZM197.94,20.27a7.51,7.51,0,0,0-7.48,7.53v1.14A2.54,2.54,0,0,0,193,31.49h42.48a6.52,6.52,0,0,0,5.85-6.89A9.39,9.39,0,0,0,232,15.2l-.56.07a2.41,2.41,0,0,1-2.49-1.77A11.79,11.79,0,0,0,206,19.19a2.43,2.43,0,0,1-3.79,2.48A7.39,7.39,0,0,0,197.94,20.27Z"/><g id="_Group_" data-name=" Group "><polygon class="cls-2" points="27.42 155.44 27.42 165.73 4.87 152.64 4.87 142.35 27.42 155.44"/><polygon class="cls-2" points="241.31 142.47 241.31 152.75 218.95 165.73 218.95 155.44 241.31 142.47"/><path class="cls-2" d="M238.91,138.24l-22.39,13L124.41,97.79a2.42,2.42,0,0,0-2.44,0L29.85,151.23,7.28,138.13l115.9-67.24Z"/><path class="cls-3" d="M190.32,151.94a2.42,2.42,0,0,1,0,4.2l-25,14.5a2.43,2.43,0,0,1-1.22.33,2.4,2.4,0,0,1-1.22-.33L134.51,154.2a2.44,2.44,0,0,1,0-4.21l25-14.5a2.42,2.42,0,0,1,2.44,0Zm-26.24,13.78L184.25,154l-23.5-13.63-20.17,11.68Z"/><path class="cls-3" d="M152.85,173.69a2.41,2.41,0,0,1,1.21,2.1,2.44,2.44,0,0,1-1.21,2.11l-28.44,16.48a2.43,2.43,0,0,1-1.22.33,2.4,2.4,0,0,1-1.22-.33L93.62,177.94a2.44,2.44,0,0,1,0-4.21L122,157.19a2.46,2.46,0,0,1,2.45,0Zm-29.66,15.78,23.59-13.68L123.19,162.1,99.67,175.82Z"/><path class="cls-3" d="M124.41,113.7l27.05,15.69a2.44,2.44,0,0,1,1.21,2.11,2.41,2.41,0,0,1-1.21,2.1L85.55,171.84a2.4,2.4,0,0,1-1.22.33,2.43,2.43,0,0,1-1.22-.33l-27-15.7a2.43,2.43,0,0,1,0-4.2L122,113.7A2.42,2.42,0,0,1,124.41,113.7ZM84.33,166.92l61.06-35.42-22.2-12.89L62.13,154Z"/><path class="cls-3" d="M203.83,199.77h0a3,3,0,0,1-.43.11,1.78,1.78,0,0,1-1.77-.05c-.08,0-.16,0-.23-.06h0l-15.32-8.89c-.12-.07-.18-.2-.28-.28l-44.84,26v18.24a2.44,2.44,0,0,1-1.21,2.11l-15.32,8.89s-.08,0-.12,0a2.41,2.41,0,0,1-1.1.3,2.45,2.45,0,0,1-1.11-.3s-.08,0-.11,0L106.64,237a2.44,2.44,0,0,1-1.21-2.11V216.61l-43.61-25.3c-.1.09-.16.21-.28.28l-15.33,8.89h0a2.42,2.42,0,0,1-2.22.05c-.07,0-.15,0-.21-.05h0L28.63,191.7a2.44,2.44,0,0,1-1.21-2.1V171.35L1.21,156.14A2.41,2.41,0,0,1,0,154V138.13A2.43,2.43,0,0,1,.29,137a2.31,2.31,0,0,1,.19-.28,2.64,2.64,0,0,1,.23-.35,2.12,2.12,0,0,1,.35-.23c.06,0,.09-.12.15-.15L122,66a2.42,2.42,0,0,1,2.44,0L245,136.14c.06,0,.09.1.14.14a2.32,2.32,0,0,1,.6.61c.06.09.13.16.18.25a2.43,2.43,0,0,1,.29,1.1v15.91a2.44,2.44,0,0,1-1.21,2.11l-26,15.09V189.6a2.44,2.44,0,0,1-1.21,2.1Zm37.48-47V142.47l-22.36,13v10.29Zm-24.79-1.52,22.39-13L123.18,70.89,7.28,138.13l22.57,13.1L122,97.79a2.42,2.42,0,0,1,2.44,0Zm-2.44,37V158.26l-88.46,51.33v29.93l10.46-6.07V213.81l69-40v19.65Zm-90.89,17.18L211.67,154l-88.48-51.33L34.7,154Zm77-11.92v-11.2l-9.65,5.59Zm-79.42,46.07V209.59L32.29,158.26v29.93l10.27,6V179.84s0,0,0,0v-5.29l67.74,39.3v19.64ZM47.43,194.16l9.65-5.6L47.43,183Zm-20-28.43V155.44L4.87,142.35v10.29Z"/></g><line class="cls-4" x1="94.98" y1="43.61" x2="80.01" y2="24.52"/><line class="cls-4" x1="94.98" y1="55.43" x2="109.17" y2="34.72"/><ellipse class="cls-5" cx="123.09" cy="84.17" rx="3.11" ry="3.12"/><ellipse class="cls-5" cx="66.07" cy="111.63" rx="3.11" ry="3.12"/><ellipse class="cls-5" cx="91.73" cy="108.51" rx="3.11" ry="3.12"/><ellipse class="cls-5" cx="81.87" cy="103.29" rx="3.1" ry="3.12"/><ellipse class="cls-5" cx="111.5" cy="95.53" rx="3.11" ry="3.12"/><ellipse class="cls-5" cx="109.35" cy="85.57" rx="3.1" ry="3.12"/><path class="cls-5" d="M95,0a33.17,33.17,0,0,0-2.43,66.24v34.51a2.43,2.43,0,0,0,4.86,0V66.24A33.17,33.17,0,0,0,95,0Zm2.43,61.38V56.19L111.17,36.1a2.43,2.43,0,1,0-4-2.75h0L97.41,47.58V23.9a2.43,2.43,0,0,0-4.86,0V36.56L81.93,23a2.43,2.43,0,1,0-3.83,3L92.55,44.45V61.38a28.17,28.17,0,1,1,4.86,0Z"/></svg>