<svg id="Layer_1" data-name="Layer 1" xmlns="http://www.w3.org/2000/svg" viewBox="0 0 190.86 190.85"><defs><style>.cls-1{fill:#52783d;}.cls-2{fill:#c7811d;}.cls-3{fill:#231f20;}</style></defs><title>Roof</title><rect class="cls-1" x="21.45" y="2.25" width="13.15" height="46.36"/><polygon class="cls-1" points="120.35 65.35 118.44 65.35 61.63 2.25 2.27 68.19 11.05 77.94 61.63 21.77 113.3 79.15 120.35 79.15 166.68 79.15 183.68 79.15 183.68 65.35 166.68 65.35 120.35 65.35"/><path class="cls-1" d="M120.35,65.35h64.08l-20.66-23.1a5.81,5.81,0,0,1-.06-1.21l-.36,0a5.51,5.51,0,0,1-.69-.06l-7.24-8.09a5.78,5.78,0,0,1,0-1.7l-.4,0a5.51,5.51,0,0,1-1.21-.13l-3.54-4a5.8,5.8,0,0,1-.05-1.41h0a5.3,5.3,0,0,1-1.34-.18l-7.1-7.94a5.79,5.79,0,0,1,0-1,4.76,4.76,0,0,1-3.17-4.44,4.57,4.57,0,0,1-4.06-3.8,4.41,4.41,0,0,1-2.1-1.24l-.19-.21a5,5,0,0,1-1-2.09A4.82,4.82,0,0,1,130,4.51l-2-2.25H61.63l56.81,63.1Z"/><path class="cls-2" d="M163.06,93.17H110.82L63.75,40.9a2.25,2.25,0,0,0-3.18-.17l-.17.17-51,56.67a2.25,2.25,0,0,0,3.35,3L62.08,45.77l46.07,51.16a2.25,2.25,0,0,0,1.67.75h53.25a2.25,2.25,0,0,0,0-4.51Z"/><path class="cls-2" d="M188.61,90.17H174.26A2.25,2.25,0,0,0,172,92.42h0v7.3a2.25,2.25,0,0,0,2.25,2.25h4.48V179.2a2.24,2.24,0,0,0,.31,1.15l4.2,7.1a2.25,2.25,0,0,0,3.88-2.29l-3.88-6.57V102h5.37a2.25,2.25,0,0,0,2.25-2.25h0v-7.3A2.25,2.25,0,0,0,188.61,90.17Zm-2.26,7.3h-9.84v-2.8h9.84Z"/><path class="cls-3" d="M186.64,65.13a2,2,0,0,0-.06-.29,2.2,2.2,0,0,0-.42-.87s0-.09-.06-.12l-44.6-49.53v0l-.09,0L129.29.75a2.25,2.25,0,0,0-1.22-.7V0H61.63c-.12,0-.21.08-.33.1a2.24,2.24,0,0,0-.73.22,2.07,2.07,0,0,0-.32.22,2,2,0,0,0-.3.21L36.85,26.41V2.25A2.25,2.25,0,0,0,34.6,0H21.45A2.25,2.25,0,0,0,19.2,2.25V46L.59,66.68a2.25,2.25,0,0,0,0,3l8.78,9.75a2.25,2.25,0,0,0,3.18.17l.17-.17L61.63,25.13l50,55.52a2.25,2.25,0,0,0,1.67.75h71.13a2.25,2.25,0,0,0,2.25-2.25V65.35A2.07,2.07,0,0,0,186.64,65.13Zm-7.27-2H119.45l-10.09-11.2a10.64,10.64,0,0,0,3-1.38,5.37,5.37,0,0,1,2-.89v0a5.44,5.44,0,0,1,1.5-.14l.39,0,.2,0a5.38,5.38,0,0,1,2.27,1,9.9,9.9,0,0,0,11.17,0,5.32,5.32,0,0,1,3.15-1,5.37,5.37,0,0,1,.62,0l.2,0h0a5.31,5.31,0,0,1,2.28,1,9.85,9.85,0,0,0,11.15,0,5.33,5.33,0,0,1,6.3,0,9.86,9.86,0,0,0,11.15,0,5.31,5.31,0,0,1,1.9-.86h0c.16,0,.32-.07.48-.1ZM163.66,46a9.61,9.61,0,0,0-1,.54l-.35.2a5.3,5.3,0,0,1-6.28,0,9.87,9.87,0,0,0-11.16,0,5.33,5.33,0,0,1-6.3,0A9.82,9.82,0,0,0,133,45h-.19a9.81,9.81,0,0,0-5.38,1.71,5.38,5.38,0,0,1-3.16,1h-.15a5.38,5.38,0,0,1-2-.46,5,5,0,0,1-.95-.56A9.75,9.75,0,0,0,115.84,45h-.57l-.33,0a9.84,9.84,0,0,0-5,1.68,5,5,0,0,1-3.18,1,2.22,2.22,0,0,0-.95.23L95.08,36a10.85,10.85,0,0,0,2.85-1.34,5.4,5.4,0,0,1,6.36,0,9.85,9.85,0,0,0,10.06.63h0a9.78,9.78,0,0,0,1.11-.65,5.32,5.32,0,0,1,3.15-1,5.37,5.37,0,0,1,.67.05h.16l.17,0a5.3,5.3,0,0,1,2.15.93,9.85,9.85,0,0,0,11.15,0,5.32,5.32,0,0,1,6.3,0,9.86,9.86,0,0,0,11.15,0,5.27,5.27,0,0,1,2.22-.93l.3,0h0l10.95,12.16ZM149.38,30.08a9.66,9.66,0,0,0-1,.56c-.14.08-.29.15-.43.24a5.31,5.31,0,0,1-6.28,0,9.87,9.87,0,0,0-11.16,0,5.33,5.33,0,0,1-6.3,0c-.12-.08-.26-.14-.38-.22s-.54-.34-.83-.48-.34-.14-.51-.22-.53-.22-.8-.31l-.54-.15c-.27-.07-.54-.14-.82-.18l-.55-.08c-.28,0-.55-.05-.83-.06h-.56c-.28,0-.55,0-.83.06l-.55.07c-.28,0-.56.12-.83.19s-.35.08-.52.13-.6.22-.89.35a9.78,9.78,0,0,0-1.69.91,5.39,5.39,0,0,1-6.34,0,9.88,9.88,0,0,0-11.16,0,5,5,0,0,1-3.18,1,2.24,2.24,0,0,0-.83.17L80.36,19.68a16,16,0,0,0,1.44-.81,5.4,5.4,0,0,1,6.36,0,9.87,9.87,0,0,0,11.15,0,5.37,5.37,0,0,1,6.33,0,9.83,9.83,0,0,0,11.14,0,5.33,5.33,0,0,1,6.3,0,9.86,9.86,0,0,0,11.15,0,5.34,5.34,0,0,1,4.58-.82L149.56,30Zm-35-25.58h12.27l8.25,9.16-.59.19-.21.07a10.47,10.47,0,0,0-1,.42l-.25.13a10.46,10.46,0,0,0-1,.59,5.32,5.32,0,0,1-6.29,0,9.86,9.86,0,0,0-11.15,0h0a5.36,5.36,0,0,1-6.3,0,9.84,9.84,0,0,0-11.14,0,5.4,5.4,0,0,1-6.35,0,9.88,9.88,0,0,0-11.16,0,5.34,5.34,0,0,1-2.33,1L66.69,4.51Zm-90.64,0h8.64V31.41L23.7,41ZM182.18,76.89H114.3l-51-56.63A2.32,2.32,0,0,0,60,20.2l-.06.06L11,74.58,5.3,68.19,61.63,5.62l3.2,3.55,51.94,57.69a2.25,2.25,0,0,0,1.67.75h63.73Z"/><circle class="cls-3" cx="56.28" cy="85.68" r="3.39"/><circle class="cls-3" cx="48.74" cy="93.64" r="3.39"/><circle class="cls-3" cx="41.2" cy="101.61" r="3.39"/><circle class="cls-3" cx="33.67" cy="109.57" r="3.39"/><circle class="cls-3" cx="26.13" cy="117.53" r="3.39"/><circle class="cls-3" cx="18.59" cy="125.49" r="3.39"/><circle class="cls-3" cx="63.82" cy="77.72" r="3.39"/><circle class="cls-3" cx="71.16" cy="85.68" r="3.39"/><circle class="cls-3" cx="78.51" cy="93.64" r="3.39"/><circle class="cls-3" cx="85.85" cy="101.61" r="3.39"/><circle class="cls-3" cx="93.19" cy="109.57" r="3.39"/><circle class="cls-3" cx="100.54" cy="117.53" r="3.39"/><circle class="cls-3" cx="107.88" cy="125.49" r="3.39"/><circle class="cls-3" cx="150.04" cy="133.46" r="3.39"/><circle class="cls-3" cx="138.99" cy="133.46" r="3.39"/><circle class="cls-3" cx="126.84" cy="133.46" r="3.39"/><circle class="cls-3" cx="150.01" cy="133.46" r="3.39"/><circle class="cls-3" cx="138.99" cy="133.46" r="3.39"/><circle class="cls-3" cx="126.81" cy="133.46" r="3.39"/><circle class="cls-3" cx="150.04" cy="187.47" r="3.39"/><circle class="cls-3" cx="138.45" cy="187.47" r="3.39"/><circle class="cls-3" cx="126.84" cy="187.47" r="3.39"/><circle class="cls-3" cx="150.01" cy="187.47" r="3.39"/><circle class="cls-3" cx="126.81" cy="187.47" r="3.39"/><circle class="cls-3" cx="103.63" cy="187.47" r="3.39"/><circle class="cls-3" cx="92.05" cy="187.47" r="3.39"/><circle class="cls-3" cx="80.46" cy="187.47" r="3.39"/><circle class="cls-3" cx="68.87" cy="187.47" r="3.39"/><circle class="cls-3" cx="57.28" cy="187.47" r="3.39"/><circle class="cls-3" cx="45.69" cy="187.47" r="3.39"/><circle class="cls-3" cx="34.1" cy="187.47" r="3.39"/><circle class="cls-3" cx="22.51" cy="187.47" r="3.39"/><circle class="cls-3" cx="161.62" cy="187.47" r="3.39"/><circle class="cls-3" cx="161.62" cy="176.66" r="3.39"/><circle class="cls-3" cx="161.62" cy="165.86" r="3.39"/><circle class="cls-3" cx="161.62" cy="155.06" r="3.39"/><circle class="cls-3" cx="161.62" cy="144.26" r="3.39"/><circle class="cls-3" cx="161.62" cy="133.46" r="3.39"/><path class="cls-3" d="M11,184.08h-.13a3.39,3.39,0,0,0,0,6.77H11a3.39,3.39,0,0,0,0-6.77Z"/><circle class="cls-3" cx="11.05" cy="176.66" r="3.39"/><circle class="cls-3" cx="11.05" cy="165.86" r="3.39"/><circle class="cls-3" cx="11.05" cy="155.06" r="3.39"/><circle class="cls-3" cx="11.05" cy="144.26" r="3.39"/><circle class="cls-3" cx="11.05" cy="133.46" r="3.39"/><circle class="cls-3" cx="115.22" cy="187.47" r="3.39"/><circle class="cls-3" cx="115.22" cy="176.66" r="3.39"/><circle class="cls-3" cx="115.22" cy="165.86" r="3.39"/><circle class="cls-3" cx="115.22" cy="155.06" r="3.39"/><circle class="cls-3" cx="115.22" cy="144.26" r="3.39"/><circle class="cls-3" cx="115.22" cy="133.46" r="3.39"/><circle class="cls-3" cx="45.68" cy="176.66" r="3.39"/><circle class="cls-3" cx="45.68" cy="165.86" r="3.39"/><circle class="cls-3" cx="45.68" cy="155.06" r="3.39"/><circle class="cls-3" cx="45.68" cy="144.26" r="3.39"/><circle class="cls-3" cx="57.05" cy="144.26" r="3.39"/><circle class="cls-3" cx="80.45" cy="176.66" r="3.39"/><circle class="cls-3" cx="80.45" cy="165.86" r="3.39"/><circle class="cls-3" cx="80.45" cy="155.06" r="3.39"/><circle class="cls-3" cx="80.45" cy="144.26" r="3.39"/><circle class="cls-3" cx="68.75" cy="144.26" r="3.39"/></svg>