<?xml version="1.0" encoding="UTF-8"?>
<!-- Generator: Adobe Illustrator 21.0.0, SVG Export Plug-In . SVG Version: 6.00 Build 0)  -->
<svg version="1.1" id="Слой_1" xmlns="http://www.w3.org/2000/svg" xmlns:xlink="http://www.w3.org/1999/xlink" x="0px" y="0px" viewBox="0 0 52 42" style="enable-background:new 0 0 52 42;" xml:space="preserve">
<style type="text/css">
	.st0{fill:#DF8744;}
	.st1{fill:#FFFFFF;}
	.st2{fill:#201600;}
</style>
<polygon class="st0" points="45.2,18.4 33.1,6.3 22.2,17.1 22.2,38.3 47.6,38.3 47.6,18.4 "/>
<polyline class="st1" points="49.8,15.5 46.4,15.5 33.1,2.2 49.8,2.2 "/>
<circle class="st1" cx="33.1" cy="13.9" r="2.2"/>
<g>
	<polyline class="st1" points="49.6,26.7 32.5,26.7 30.3,33.3 25,33.3 25,36.5 49.6,36.5  "/>
</g>
<g>
	<polygon class="st1" points="49.8,36.5 38.2,36.5 38.2,33.3 43.5,33.3 45.7,26.7 49.8,26.7  "/>
</g>
<g>
	<path class="st1" d="M6.2,25.2c0,3.6,2.9,6.5,6.5,6.5c3.6,0,6.5-2.9,6.5-6.5H6.2z"/>
</g>
<g>
	<rect x="6.2" y="23.4" class="st1" width="13" height="2.1"/>
</g>
<rect x="0.5" y="26.7" class="st1" width="1.9" height="11.6"/>
<g>
	<path class="st2" d="M51.5,41h-1.3v-2.7c0-0.3-0.2-0.5-0.5-0.5H48v-0.9h1.6h0.2c0.3,0,0.5-0.2,0.5-0.5v-9.7c0-0.3-0.2-0.5-0.5-0.5   h-0.2H48v-7.3h1.7c0.3,0,0.5-0.2,0.5-0.5c0-0.3-0.2-0.5-0.5-0.5h-4.4l-12-12c-0.2-0.2-0.5-0.2-0.7,0L21.2,17.5l-1.4-1.4L33.1,2.8   l13,13c0.1,0.1,0.2,0.1,0.3,0.1h3.3c0.3,0,0.5-0.2,0.5-0.5l0,0v0c0-0.3-0.2-0.5-0.5-0.5h-3.1L34.2,2.6h15.6c0.3,0,0.5-0.2,0.5-0.5   c0-0.3-0.2-0.5-0.5-0.5H33.1c0,0,0,0,0,0c-0.1,0-0.1,0-0.2,0.1c0,0,0,0-0.1,0c0,0,0,0-0.1,0l-14,14c-0.2,0.2-0.2,0.5,0,0.7l2.1,2.1   c0.2,0.2,0.5,0.2,0.7,0l0.2-0.2v8h-2.1c0-0.2,0.1-0.5,0.1-0.7c0,0,0-0.1,0-0.1v-2.1c0-0.3-0.2-0.5-0.5-0.5h-13   c-0.3,0-0.5,0.2-0.5,0.5v2.1c0,0,0,0.1,0,0.1c0,0.2,0,0.5,0.1,0.7H2.4H0.5c-0.3,0-0.5,0.2-0.5,0.5v11.6v3.2C0,41.8,0.2,42,0.5,42   h49.3h1.8c0.3,0,0.5-0.2,0.5-0.5C52,41.3,51.8,41,51.5,41z M47,37.8h-7.1v-0.9H47V37.8z M44.7,28.4H32.4l0.4-1.2h12.3L44.7,28.4z    M32.1,29.4h12.3l-0.4,1.2H31.7L32.1,29.4z M31.3,31.6h12.3l-0.4,1.2h-5h-7.3L31.3,31.6z M30.3,33.8h7.5V36H25.4v-2.2H30.3z    M38.2,36.9H39v0.9H27v-0.9H38.2z M49.3,36H38.7v-2.2h4.8c0.1,0,0.2,0,0.2-0.1c0,0,0,0,0,0c0.1-0.1,0.1-0.1,0.2-0.2c0,0,0,0,0,0   l2.1-6.2h3.2V36z M33.1,7l11.8,11.8c0.1,0.1,0.2,0.1,0.3,0.1h1.9v7.3h-1.3H32.5c-0.2,0-0.4,0.1-0.5,0.3l-2.1,6.2h-5   c-0.3,0-0.5,0.2-0.5,0.5v3.2c0,0.3,0.2,0.5,0.5,0.5h1.1v0.9h-3.2h-0.2v-9.1v-2v-9.4L33.1,7z M2.9,29.2H7c0.9,1.3,2.2,2.3,3.8,2.8   l-2,5.9H2.9V29.2z M18.7,26c-0.4,3-2.9,5.3-6,5.3s-5.6-2.3-6-5.3H18.7z M11.7,32.1c0.2,0,0.4,0.1,0.6,0.1v5.6H9.8L11.7,32.1z    M13.2,32.2c0.2,0,0.4,0,0.6-0.1l1.9,5.7h-2.5V32.2z M16.7,37.8l-2-5.9c1.6-0.5,2.9-1.5,3.8-2.8h3.2v8.7H16.7z M21.7,27.2v1H19   c0.2-0.3,0.3-0.7,0.4-1H21.7z M6.7,23.9h12.1V25H6.7V23.9z M6.4,28.2H2.9v-1H6C6.1,27.6,6.3,27.9,6.4,28.2z M1,27.2h1v1.5v9.1H1   V27.2z M1,41v-2.3h1.4h46.9V41H1z"/>
	<path class="st2" d="M6.2,4.9c0,0.3,0.2,0.5,0.5,0.5h7.3c0.3,0,0.5-0.2,0.5-0.5s-0.2-0.5-0.5-0.5H6.7C6.4,4.4,6.2,4.6,6.2,4.9z"/>
	<path class="st2" d="M2.4,2.5h7.7c0.3,0,0.5-0.2,0.5-0.5s-0.2-0.5-0.5-0.5H2.4C2.1,1.5,1.9,1.7,1.9,2S2.1,2.5,2.4,2.5z"/>
	<path class="st2" d="M2.4,8.6h7.7c0.3,0,0.5-0.2,0.5-0.5c0-0.3-0.2-0.5-0.5-0.5H2.4c-0.3,0-0.5,0.2-0.5,0.5   C1.9,8.4,2.1,8.6,2.4,8.6z"/>
	<path class="st2" d="M33.1,16.5c1.5,0,2.6-1.2,2.6-2.6s-1.2-2.6-2.6-2.6c-1.5,0-2.6,1.2-2.6,2.6S31.6,16.5,33.1,16.5z M33.1,12.2   c0.9,0,1.7,0.8,1.7,1.7c0,0.9-0.8,1.7-1.7,1.7c-0.9,0-1.7-0.8-1.7-1.7C31.4,13,32.1,12.2,33.1,12.2z"/>
	<path class="st2" d="M10,13.7c0-0.3-0.2-0.5-0.5-0.5c-0.3,0-0.5,0.2-0.5,0.5c0,0.8-0.2,1.2-0.5,1.6c-0.3,0.5-0.7,1-0.7,2.1   c0,1.1,0.3,1.6,0.7,2.1C8.8,19.9,9,20.3,9,21.1c0,0.3,0.2,0.5,0.5,0.5c0.3,0,0.5-0.2,0.5-0.5c0-1.1-0.3-1.6-0.7-2.1   c-0.3-0.4-0.5-0.8-0.5-1.6c0-0.8,0.2-1.2,0.5-1.6C9.6,15.3,10,14.8,10,13.7z"/>
	<path class="st2" d="M13,13.7c0-0.3-0.2-0.5-0.5-0.5c-0.3,0-0.5,0.2-0.5,0.5c0,0.8-0.2,1.2-0.5,1.6c-0.3,0.5-0.7,1-0.7,2.1   c0,1.1,0.3,1.6,0.7,2.1c0.3,0.4,0.5,0.8,0.5,1.6c0,0.3,0.2,0.5,0.5,0.5c0.3,0,0.5-0.2,0.5-0.5c0-1.1-0.3-1.6-0.7-2.1   c-0.3-0.4-0.5-0.8-0.5-1.6c0-0.8,0.2-1.2,0.5-1.6C12.7,15.3,13,14.8,13,13.7z"/>
	<path class="st2" d="M14.8,19.5c0.3,0.4,0.5,0.8,0.5,1.6c0,0.3,0.2,0.5,0.5,0.5c0.3,0,0.5-0.2,0.5-0.5c0-1.1-0.3-1.6-0.7-2.1   c-0.3-0.4-0.5-0.8-0.5-1.6c0-0.8,0.2-1.2,0.5-1.6c0.3-0.5,0.7-1,0.7-2.1c0-0.3-0.2-0.5-0.5-0.5c-0.3,0-0.5,0.2-0.5,0.5   c0,0.8-0.2,1.2-0.5,1.6c-0.3,0.5-0.7,1-0.7,2.1C14.1,18.4,14.5,19,14.8,19.5z"/>
</g>
</svg>