<?xml version="1.0" encoding="UTF-8"?>
<!-- Generator: Adobe Illustrator 21.0.0, SVG Export Plug-In . SVG Version: 6.00 Build 0)  -->
<svg version="1.1" id="Слой_1" xmlns="http://www.w3.org/2000/svg" xmlns:xlink="http://www.w3.org/1999/xlink" x="0px" y="0px" viewBox="0 0 595.3 841.9" style="enable-background:new 0 0 595.3 841.9;" xml:space="preserve">
<style type="text/css">
	.st0{fill:#AAAAAA;}
</style>
<g>
	<path class="st0" d="M423.3,363.3c-12-13.2-27.9-21.9-45.3-25.1c-5.5-13.8-14.8-26.2-26.8-35.1c-14.1-10.6-30.8-16.1-48.5-16.1   c-17.7,0-34.5,5.6-48.6,16.3c-11.9,9-21.2,21.2-26.6,35c-17.4,3.1-33.3,11.9-45.4,25.1c-13.6,14.9-21.1,34.3-21.1,54.5   c0,44.6,36.3,80.9,80.9,80.9c5.5,0,10-4.5,10-10s-4.5-10-10-10c-33.6,0-60.9-27.3-60.9-60.9c0-31.5,23.6-57.5,54.9-60.6l6.7-0.7   l1.9-6.4c7.7-25.5,31.7-43.2,58.3-43.2c26.4,0,49.4,16.6,57.7,41.6v7.9l9,0.9c31.3,3,54.9,29.1,54.9,60.6   c0,33.6-27.3,60.9-60.9,60.9c-5.5,0-10,4.5-10,10s4.5,10,10,10c44.6,0,80.9-36.3,80.9-80.9C444.5,397.6,437,378.3,423.3,363.3z"/>
	<path class="st0" d="M352.7,428.7l-50-50l-7.1,7.1c0,0,0,0,0,0l-42.9,42.9c-3.9,3.9-3.9,10.2,0,14.1c2,2,4.5,2.9,7.1,2.9   c2.6,0,5.1-1,7.1-2.9l25.8-25.8v105.5c0,5.5,4.5,10,10,10c5.5,0,10-4.5,10-10V417l25.8,25.8c3.9,3.9,10.2,3.9,14.1,0   C356.6,438.9,356.6,432.6,352.7,428.7z"/>
</g>
</svg>