<svg id="Layer_1" data-name="Layer 1" xmlns="http://www.w3.org/2000/svg" viewBox="0 0 215.32 215.32"><defs><style>.cls-1{fill:#c7811d;}.cls-2{fill:none;}.cls-3{fill:#fff;}.cls-4{fill:#52783d;}.cls-5{fill:#231f20;}</style></defs><title>Walls</title><polygon class="cls-1" points="119.89 205.78 203.69 159.97 203.69 124.24 167.39 143.82 167.69 90 119.89 115.97 119.89 205.78"/><polygon class="cls-1" points="133.54 108.58 167.69 90 153.58 82.11 119.89 100.67 133.54 108.58"/><line class="cls-2" x1="145.07" y1="173.68" x2="203.69" y2="142.12"/><line class="cls-2" x1="145.07" y1="155.85" x2="203.69" y2="124.24"/><line class="cls-2" x1="167.7" y1="125.17" x2="145.07" y2="137.38"/><line class="cls-2" x1="145.07" y1="119.54" x2="166.61" y2="107.76"/><polygon class="cls-3" points="36.61 196.86 2.46 178.28 16.57 170.38 50.27 188.95 36.61 196.86"/><polygon class="cls-3" points="36.63 212.64 2.46 194.46 2.67 178.28 36.61 196.86 36.63 212.64"/><polygon class="cls-1" points="131.42 212.91 145.07 205 145.07 115.19 131.42 123.1 131.42 169.91 131.42 197.88 131.42 212.91"/><polygon class="cls-1" points="131.42 212.91 16.12 145.42 16.12 55.61 131.42 123.1 131.42 169.91 131.42 197.88 131.42 212.91"/><polyline class="cls-1" points="43.39 55.37 145.07 115.19 131.42 123.1 16.12 55.61 107.48 3.63 120.06 11.15"/><line class="cls-2" x1="131.42" y1="195.08" x2="16.12" y2="127.59"/><line class="cls-2" x1="131.42" y1="177.25" x2="16.12" y2="109.76"/><line class="cls-2" x1="131.42" y1="158.78" x2="16.12" y2="91.29"/><line class="cls-2" x1="131.42" y1="140.93" x2="16.12" y2="73.44"/><polygon class="cls-4" points="106.73 212.91 119.05 205.78 119.05 115.97 106.73 123.1 106.73 169.91 106.73 197.88 106.73 212.91"/><polygon class="cls-1" points="106.73 123.1 118.93 116.09 105.27 108.19 93.07 115.19 106.73 123.1"/><polygon class="cls-1" points="106.73 212.91 93.07 205 93.07 115.19 106.73 123.1 106.73 169.91 106.73 197.88 106.73 212.91"/><line class="cls-2" x1="106.73" y1="195.08" x2="119.05" y2="187.95"/><line class="cls-2" x1="106.73" y1="177.25" x2="119.05" y2="170.12"/><line class="cls-2" x1="106.73" y1="158.78" x2="119.05" y2="151.65"/><line class="cls-2" x1="106.73" y1="140.93" x2="119.05" y2="133.81"/><polygon class="cls-1" points="106.73 212.91 119.05 205.78 119.05 115.97 106.73 123.1 106.73 169.91 106.73 197.88 106.73 212.91"/><line class="cls-2" x1="106.73" y1="195.08" x2="119.05" y2="187.95"/><line class="cls-2" x1="106.73" y1="177.25" x2="119.05" y2="170.12"/><line class="cls-2" x1="106.73" y1="158.78" x2="119.05" y2="151.65"/><line class="cls-2" x1="106.73" y1="140.93" x2="119.05" y2="133.81"/><polygon class="cls-1" points="167.69 127.59 189.1 115.82 203.69 124.24 167.39 143.82 167.69 127.59"/><polygon class="cls-3" points="50.27 188.95 50.27 204.54 36.63 212.64 36.61 196.86 50.27 188.95"/><line class="cls-2" x1="120.06" y1="11.15" x2="43.39" y2="55.37"/><path class="cls-4" d="M215.36,50c0-26.73-28.77-48.61-30-49.53a2.42,2.42,0,0,0-2.93,0c-1.23.93-30,23.14-30,49.52a31.48,31.48,0,0,0,29,31.34V100a2.43,2.43,0,0,0,4.86,0V81.36A31.48,31.48,0,0,0,215.36,50Zm-29,26.47V51.63L198,44.84a2.43,2.43,0,0,0-2.44-4.2L186.33,46V39.64a2.43,2.43,0,0,0-4.86,0V56.41L168.1,48.16a2.43,2.43,0,0,0-2.56,4.14h0l15.92,9.83V76.49A26.62,26.62,0,0,1,157.31,50c0-20.74,20.83-39.63,26.6-44.46C189.69,10.33,210.49,29,210.49,50A26.62,26.62,0,0,1,186.33,76.49Z"/><g id="_Group_" data-name=" Group "><polygon class="cls-3" points="117.61 15.39 117.32 96.05 48.24 55.38 117.61 15.39"/><path class="cls-5" d="M108.71,1.53l12.6,7.54a0,0,0,0,1,.05,0h0a2.57,2.57,0,0,1,.82.82V10a2.64,2.64,0,0,1,.3,1.07v.1l-.3,85.47L152.39,80a2.33,2.33,0,0,1,2.39,0l14.1,7.88v.05h.05a3.29,3.29,0,0,1,.59.59l.29.29A2.17,2.17,0,0,1,170.1,90L170,123.58l17.95-9.88a2.47,2.47,0,0,1,2.44,0l14.54,8.42.05.05c.05,0,.05.05.1.1a2.2,2.2,0,0,1,.68.68l.1.09v.05a2.12,2.12,0,0,1,.29,1.07V160a2.49,2.49,0,0,1-1.27,2.14l-57.35,31.32V205a2.39,2.39,0,0,1-1.17,2.09L132.64,215a2.69,2.69,0,0,1-1.21.29,2.45,2.45,0,0,1-1.22-.29l-.05-.05-11-6.42L107.93,215a2.58,2.58,0,0,1-1.22.29,2.69,2.69,0,0,1-1.21-.29L91.83,207.1A2.44,2.44,0,0,1,90.61,205V191.88L14.87,147.51a2.4,2.4,0,0,1-1.17-2.09V55.62a2.33,2.33,0,0,1,.15-.63A2,2,0,0,1,14,54.4a1.91,1.91,0,0,1,.53-.53c.15-.1.24-.29.39-.39l91.36-52A2.4,2.4,0,0,1,108.71,1.53Zm38.67,113.15a2,2,0,0,1,.1.53v.25l17.71-9.69.05-11.67-26.61,14.5,7.68,4.47a2.15,2.15,0,0,1,.54.59c.09.14.24.19.34.34A3,3,0,0,1,147.38,114.68Zm53.85,43.83V146.2l-53.75,28.94v12.75Zm0-17.86V128.3L168.54,146l-21.06,11.33V169.6ZM178.61,135l20.09-10.85-9.63-5.54L170.1,129l-.19,10.65Zm-13.52-11.19.05-12.5L147.48,121v12.31Zm-.15,18.54.1-13-17.56,9.48v12.94Zm-31.23-36.68L162.66,90l-9.1-5.05-28.51,15.71Zm8.9,97.92V119.4l-4.23,2.48-4.52,2.62v84.21ZM137.07,117l3.16-1.85-7.34-4.33a2.11,2.11,0,0,1-.59-.14l-13.52-7.83c-.1-.05-.2-.05-.25-.1L42.16,57.47a2.22,2.22,0,0,1-.78-.83s-.09,0-.09,0,0-.19-.1-.29a1,1,0,0,1-.15-.48,1.35,1.35,0,0,1,0-.44,1.48,1.48,0,0,1,0-.49,1.64,1.64,0,0,1,.15-.44c0-.09,0-.24.1-.34a.11.11,0,0,0,.09-.09c.1-.1.2-.25.29-.35s.25-.24.39-.34,0,0,.1-.09l73.12-42.13-7.84-4.67L21,55.62,94.5,98.67l36.93,21.6ZM129,208.66V196.45l-7.49-4.38v12.21Zm0-17.8V178.65l-7.49-4.38v12.16ZM129,173V160.16l-7.49-4.38v12.84Zm0-18.48V142.31l-7.49-4.38v12.21Zm0-17.86V124.5l-7.49-4.37v12.16ZM117.32,96l.29-80.66-69.37,40Zm-.68,108.33V192.17l-7.49,4.33v12.21Zm0-17.85V174.32l-7.49,4.33v12.21Zm0-17.81V155.88l-7.49,4.28V173Zm0-18.48V138l-7.49,4.33v12.21Zm0-17.86V120.22l-7.49,4.28v12.21Zm-9.93-12.11,7.3-4.18L105.25,111,98,115.21Zm-2.43,88.44V124.5l-8.8-5.1v84.2Zm-12.4-95.64,8.85-5.11L27.91,65.3l-9.34-5.45V72.06l72.29,42.32A2.38,2.38,0,0,1,91,114a2.85,2.85,0,0,1,.93-.93Zm-1.27,73.16V174l-72-42.17V144Zm0-17.85V156.22L18.57,114v12.21Zm0-17.8V137.73l-72-42.22v12.84Zm0-18.49V119.88l-72-42.17V89.92Z"/></g><path class="cls-5" d="M7.58,178.21l29,15.86L45.33,189,16.58,173.15Zm31.47,30.16,8.8-5.21v-10l-8.8,5.06ZM4.9,193l29.28,15.62V198.3L5,182.44ZM0,194.41.23,179A2,2,0,0,1,0,178.3a2.43,2.43,0,0,1,1.22-2.14l14.11-7.88a2.45,2.45,0,0,1,2.38,0l33.71,18.58s0,0,0,0,.29.29.44.44.34.24.44.44.1.44.19.68.15.34.15.49v15.62a2.45,2.45,0,0,1-1.22,2.09l-13.62,8.12a2.36,2.36,0,0,1-1.26.34,2.26,2.26,0,0,1-1.12-.29L1.3,196.6A2.49,2.49,0,0,1,0,194.41Z"/></svg>