<?xml version="1.0" encoding="UTF-8"?>
<!-- Generator: Adobe Illustrator 21.0.0, SVG Export Plug-In . SVG Version: 6.00 Build 0)  -->
<svg version="1.1" id="Слой_1" xmlns="http://www.w3.org/2000/svg" xmlns:xlink="http://www.w3.org/1999/xlink" x="0px" y="0px" viewBox="0 0 52 42" style="enable-background:new 0 0 52 42;" xml:space="preserve">
<style type="text/css">
	.st0{fill:#E08844;}
	.st1{fill:#5E7C4F;}
</style>
<path class="st0" d="M49.8,27c0-0.7-0.6-1.3-1.3-1.3h-24v5.8c0,0.7-2.3,1.2-2.3,1.2s-2.3-0.5-2.3-1.2c0,0.7-2.3,1.2-2.3,1.2  s-2.3-0.5-2.3-1.2c0,0.7-2.3,1.2-2.3,1.2s-2.3-0.5-2.3-1.2v-5.8h-0.1v5.8c0,0.7-2.3,1.2-2.3,1.2s-2.3-0.5-2.3-1.2v-5.8H3.5  c-0.7,0-1.3,0.6-1.3,1.3c0,0.7,0.6,1.3,1.3,1.3H3.4c0,6.6,5.4,12,12,12h12.2c0-0.2-0.1-0.3-0.1-0.5v-1.7h3.2c0,0,0-0.8,0-1.4  c0-0.9,0.7-1.6,1.6-1.6c0.6,0,1,0.3,1.3,0.7l0.8,1.1l-1.3,1.2c0.7,0.2,1.3,0.9,1.3,1.7c0,0.2,0,0.3-0.1,0.5h2.3c6.6,0,12-5.4,12-12  h-0.2C49.2,28.3,49.8,27.7,49.8,27z"/>
<g>
	<path d="M48.5,25.2h-1.3c0,0,0-0.1,0-0.1V7.2c0-3.9-3.2-7.1-7.1-7.1h-6.6c-0.2,0-0.4,0.1-0.5,0.3l-1.1,2.4c-0.1,0.2-0.1,0.3,0,0.5   c0.1,0.1,0.3,0.2,0.4,0.2h5.4c0.2,0,0.3-0.1,0.4-0.2c0.1-0.1,0.1-0.3,0-0.5l-0.8-1.7h2.6c3.4,0,6.1,2.7,6.1,6.1V25c0,0,0,0.1,0,0.1   H24.7c0,0,0,0,0,0c0,0.3,0,0.7-0.1,1h23.8c0.4,0,0.8,0.4,0.8,0.8c0,0.4-0.4,0.8-0.8,0.8H24.7c0,0.2,0,0.3,0,0.5   c0,0.2-0.1,0.4-0.2,0.5h23.6c-0.3,6.1-5.3,11-11.5,11h-1.7c0-0.7-0.4-1.4-0.9-1.8l0.8-0.7c0.2-0.2,0.2-0.4,0.1-0.6L34,35.5   c-0.4-0.6-1-0.9-1.7-0.9c-1.2,0-2.1,0.9-2.1,2.1c0,0.3,0,0.6,0,0.9h-2.7c-0.3,0-0.5,0.2-0.5,0.5v1.7H15.4c-6.2,0-11.3-4.9-11.5-11   h2.4c0,0,0,0,0,0c0-0.3,0-0.7,0-1H3.5c-0.4,0-0.8-0.4-0.8-0.8c0-0.4,0.4-0.8,0.8-0.8h2.5C6,26,6,25.9,5.9,25.8   c-0.1-0.2-0.1-0.4,0-0.6H3.5c-1,0-1.8,0.8-1.8,1.8c0,0.8,0.5,1.4,1.2,1.7c0.1,4.2,2.3,7.9,5.6,10.1c-1.1,0.5-1.8,1.5-1.8,2.8   c0,0.3,0.2,0.5,0.5,0.5c0.3,0,0.5-0.2,0.5-0.5c0-1.2,0.9-2.1,2.1-2.1c1.7,0.9,3.6,1.4,5.7,1.4h11.8c0.4,0.7,1.1,1.2,2,1.2h3.4   c0.9,0,1.6-0.5,2-1.2h2c2,0,4-0.5,5.7-1.4c1.2,0,2.1,0.9,2.1,2.1c0,0.3,0.2,0.5,0.5,0.5c0.3,0,0.5-0.2,0.5-0.5   c0-1.3-0.7-2.4-1.8-2.8c3.3-2.2,5.5-5.9,5.6-10.1c0.7-0.3,1.2-0.9,1.2-1.7C50.3,26,49.5,25.2,48.5,25.2z M33.2,2.6l0.7-1.4h2.5   L37,2.6H33.2z M32.6,41.1h-3.4c-0.7,0-1.2-0.6-1.2-1.2v-1.2h2.7c0.3,0,0.5-0.2,0.5-0.5c0,0,0-0.8,0-1.4c0-0.6,0.5-1.1,1.1-1.1   c0.4,0,0.7,0.2,0.9,0.5l0.5,0.8l-1,0.9c-0.1,0.1-0.2,0.3-0.1,0.5c0,0.2,0.2,0.3,0.4,0.4c0.5,0.1,0.9,0.6,0.9,1.2   C33.9,40.5,33.3,41.1,32.6,41.1z"/>
	<path d="M32.4,10c0.3,0,0.5-0.2,0.5-0.5V7c0-0.3-0.2-0.5-0.5-0.5c-0.3,0-0.5,0.2-0.5,0.5v2.5C31.9,9.8,32.1,10,32.4,10z"/>
	<path d="M32.4,16.9c0.3,0,0.5-0.2,0.5-0.5V13c0-0.3-0.2-0.5-0.5-0.5c-0.3,0-0.5,0.2-0.5,0.5v3.4C31.9,16.7,32.1,16.9,32.4,16.9z"/>
	<path d="M32.4,22.8c0.3,0,0.5-0.2,0.5-0.5v-2.5c0-0.3-0.2-0.5-0.5-0.5c-0.3,0-0.5,0.2-0.5,0.5v2.5C31.9,22.6,32.1,22.8,32.4,22.8z"/>
	<path d="M38,10c0.3,0,0.5-0.2,0.5-0.5V7c0-0.3-0.2-0.5-0.5-0.5c-0.3,0-0.5,0.2-0.5,0.5v2.5C37.5,9.8,37.7,10,38,10z"/>
	<path d="M37.5,16.4c0,0.3,0.2,0.5,0.5,0.5c0.3,0,0.5-0.2,0.5-0.5V13c0-0.3-0.2-0.5-0.5-0.5c-0.3,0-0.5,0.2-0.5,0.5V16.4z"/>
	<path d="M37.5,22.3c0,0.3,0.2,0.5,0.5,0.5c0.3,0,0.5-0.2,0.5-0.5v-2.5c0-0.3-0.2-0.5-0.5-0.5c-0.3,0-0.5,0.2-0.5,0.5V22.3z"/>
	<path d="M35,10c0.3,0,0.5-0.2,0.5-0.5V7c0-0.3-0.2-0.5-0.5-0.5c-0.3,0-0.5,0.2-0.5,0.5v2.5C34.5,9.8,34.7,10,35,10z"/>
	<path d="M34.5,16.4c0,0.3,0.2,0.5,0.5,0.5c0.3,0,0.5-0.2,0.5-0.5V13c0-0.3-0.2-0.5-0.5-0.5c-0.3,0-0.5,0.2-0.5,0.5V16.4z"/>
	<path d="M34.5,22.3c0,0.3,0.2,0.5,0.5,0.5c0.3,0,0.5-0.2,0.5-0.5v-2.5c0-0.3-0.2-0.5-0.5-0.5c-0.3,0-0.5,0.2-0.5,0.5V22.3z"/>
</g>
<path class="st1" d="M27.5,2.6H25V0.7c0-0.1,0-0.2-0.1-0.2c-0.1-0.2-0.3-0.3-0.5-0.3H20c0,0,0,0,0,0c0,0,0,0,0,0h-4.5c0,0,0,0,0,0  c0,0,0,0,0,0h-4.5c0,0,0,0-0.1,0c0,0,0,0-0.1,0H6.3C6,0.1,5.9,0.2,5.8,0.4c0,0.1-0.1,0.2-0.1,0.2v1.9H3.4c-0.3,0-0.5,0.2-0.5,0.5  c0,0.3,0.2,0.5,0.5,0.5h2.4v27.9c0,0.9,1.4,1.4,2.7,1.7c0,0,0.1,0,0.1,0c0,0,0.1,0,0.1,0c0.8-0.2,1.7-0.5,2.2-0.9  c0.5,0.4,1.4,0.7,2.2,0.9c0,0,0.1,0,0.1,0c0,0,0.1,0,0.1,0c0.8-0.2,1.6-0.5,2.2-0.9c0.5,0.4,1.4,0.7,2.2,0.9c0,0,0.1,0,0.1,0  c0,0,0.1,0,0.1,0c0.8-0.2,1.6-0.5,2.2-0.9c0.5,0.4,1.4,0.7,2.2,0.9c0,0,0.1,0,0.1,0c0,0,0.1,0,0.1,0c1.2-0.3,2.7-0.8,2.7-1.7V3.6  h2.5c0.3,0,0.5-0.2,0.5-0.5C28,2.8,27.8,2.6,27.5,2.6z M8.5,32.1c-0.8-0.2-1.7-0.6-1.8-0.7V1.1h3.6l0,30.2  C10.2,31.5,9.3,31.9,8.5,32.1z M13.1,32.1c-0.8-0.2-1.7-0.6-1.8-0.7V1.1h3.6v30.2C14.7,31.6,13.9,31.9,13.1,32.1z M17.7,32.1  c-0.8-0.2-1.7-0.6-1.8-0.7V1.1h3.6v30.2C19.3,31.6,18.5,31.9,17.7,32.1z M22.2,32.1c-0.8-0.2-1.7-0.6-1.8-0.7V1.1H24l0,30.2  C23.9,31.5,23.1,31.9,22.2,32.1z"/>
</svg>